<svg xmlns="http://www.w3.org/2000/svg" viewBox="0 0 792 792"><defs><style>.cls-1{fill:none;}.cls-2{fill:#fff;}</style></defs><title>Air Bud logo white</title><g id="Layer_1" data-name="Layer 1"><path class="cls-1" d="M561.78,153.68c-6.63,3.6-13.49,7.31-18.86,12a21.5,21.5,0,0,0-.45,4.83,9.71,9.71,0,0,0,3.86-.32c9.69-4.75,16.93-12.36,24.17-20.69a53.19,53.19,0,0,0-6,2.69Z"/><path class="cls-1" d="M561.78,153.68c-6.63,3.6-13.49,7.31-18.86,12a21.5,21.5,0,0,0-.45,4.83,9.71,9.71,0,0,0,3.86-.32c9.69-4.75,16.93-12.36,24.17-20.69a53.19,53.19,0,0,0-6,2.69Z"/><path class="cls-1" d="M244.87,537.87l23.41,9.26.53-.25c1.89-1,3.85-1.77,5.76-2.56,3.78-1.57,7.7-3.2,9.41-5.41a74.4,74.4,0,0,1,5.68-6.51l-28.38-11.23c-.39-.16-.76-.37-1.16-.51-4.74-1.7-9-3.75-9-9.87s4.53-8.06,9.06-10q18.08-7.54,36.18-15,49.32-20.4,98.65-40.76c1.75-.72,3.54-1.36,5.33-2,4.73-4.28,9.45-8.61,14.06-13,3.88-3.68,10.39-9.83,20.16-3.46,1.92,1.25,3.61,1.72,5,1.37,1.82-.43,3.72-2.23,5.36-5.06a94.64,94.64,0,0,0,5.16-11c1-2.32,2-4.72,3.09-7.08q.75-1.62,1.47-3.27a53.43,53.43,0,0,1,6.27-11.5c4.15-5.37,8.54-10.62,12.79-15.69,5.6-6.69,11.38-13.6,16.52-20.68,11.35-15.64,23.85-34.56,30.46-56.25,1.41-4.63,7.94-11.27,13.69-10.66,7.48.82,13.41-2.38,20.28-6.07,1.75-.94,3.56-1.91,5.43-2.84,19.37-9.56,33.7-25.14,47.88-41.61a110.21,110.21,0,0,0,6.76-9.07c1.3-1.86,2.64-3.8,4-5.69s3.05-3.89,4.57-5.72c.66-.81,1.32-1.61,2-2.42l4.08-5,4.31,4.85c.67.75,1.33,1.52,2,2.28,1.37,1.59,2.66,3.09,4,4.45,3,3,5.89,6.19,8.68,9.28,6.3,7,12.26,13.57,19.37,18.05,22.44,14.12,57.94,8.72,75.78-4.95,24.57-18.84,33.56-47.29,24.66-78.05a65.61,65.61,0,0,0-32.89-40.18C718,115,696.93,113.54,677.53,120c-8.56,2.86-15.89,3.32-23.91-3.75-1.49-1.31-5.2-2.2-8.27-2-20.06,1.51-38.13,11.16-55.23,29.51-2.74,2.94-5.45,6.1-8.07,9.15-8.72,10.16-17.74,20.67-30.87,27.11-3.57,1.76-7.43,1.55-10.84,1.36-1.24-.07-2.42-.13-3.44-.09l-6.58.27.91-6.52c.16-1.19.19-2.68.23-4.27.1-4.61.22-9.84,3.9-13.13,6.37-5.68,13.9-9.75,21.19-13.7.89-.48,1.78-1,2.66-1.45a71.54,71.54,0,0,1,8.59-3.78c3.74-1.45,7.28-2.83,9.88-4.88,3-2.35,3.86-4.27,3.72-5.2-.19-1.15-2.09-2.94-5.93-4.36-1.61-.59-3.11-1.29-4.55-2l-1.86-.85L563.41,119l3.16-5.31c.19-.32.32-.56.42-.75a6.28,6.28,0,0,1,3.57-3.36l.53-.19a31.1,31.1,0,0,1,4.82-1.38c13.58-2.44,21.56-9.5,25.1-22.21,1-3.42.9-6.14-.15-7.64s-3.74-2.16-5.73-2.31a176.63,176.63,0,0,0-23.35-.33c-10.43.58-19.38-2.53-29-10.09-6.43-5-12.43-8-17.37-8.64-14.79-1.83-34-2.83-51.09,5.75l-1,.5c-10.61,5.31-20.63,10.32-23.61,21.2-5.59,20.36-17.3,31-35.78,32.62-2.15.19-3.06.87-3.25,1.25a2.87,2.87,0,0,0,.54,2.33c2.59,4.44,7.17,9,12.89,12.83,8.86,5.94,11.79,10.44,5.74,21.42-3.66,6.66-8.54,12-13.26,17.17-2.31,2.53-4.5,4.92-6.54,7.44-10.12,12.54-17.55,28.31-23.39,49.63-2.57,9.37-5.67,19.24-10.92,27.89-2.88,4.75-5.36,9.65-8,14.83-5.43,10.72-11,21.79-20.28,31.17-6.7,6.81-12.15,15.6-16.17,26.13-5,13.13-15.44,26.38-27.19,34.59-15.29,10.68-32.08,13.54-47.3,8.06a15.23,15.23,0,0,0-2.38.31,25.55,25.55,0,0,1-3.76.47c-1.85.07-3.72.22-5.7.37-5,.4-10.2.81-15.43-.11-15.3-2.71-31.57-5.86-47.38-11.91-19-7.26-34.89-15.69-48.63-25.76-11.65-8.53-22.1-18.76-32.21-28.66l-3.14-3.07a62.16,62.16,0,0,1-12-17.12c-2.47-5.08-4.46-10.36-6.38-15.46-1.29-3.44-2.63-7-4.08-10.37a10.78,10.78,0,0,0-.75-1.41,4.44,4.44,0,0,0-.59,1.1c-2.69,8.32-5.15,17.37-8,29.34a9.85,9.85,0,0,0,.54,5.06l.66,1.81a164.46,164.46,0,0,0,8.16,19.75c9.74,18.68,22.17,35.79,33.05,50.07l1.71,2.26c9.64,12.7,18,23.68,33.38,26.53a10.41,10.41,0,0,1,4.86,2.6c.23.2.54.46.66.54l8.3,4.12c11.88,5.91,24.16,12,36.37,17.68a14.26,14.26,0,0,0,3.5-.1c1.14-.11,2.33-.22,3.57-.23.92,0,1.89,0,2.91-.1a30.7,30.7,0,0,1,9.16.5c3.79.95,5.55,5.2,6.27,7.64.9,3.1.51,5.56-1.15,7.33-4.14,4.38-7,10.06-9.93,16.06-4.92,9.94-10.49,21.18-23.29,27a4.38,4.38,0,0,0-.61,1.32c-2.5,10-10.86,13.07-16.4,15.1a28.77,28.77,0,0,0-3.74,1.86,42.68,42.68,0,0,1-4.59,2.3c-10.52,4.27-19.29,7.71-27.6,10.83-2.5.94-5,1.71-7.45,2.47a75.85,75.85,0,0,0-10.08,3.61c-4.54,2.13-8.87,4.64-13.47,7.28-2.68,1.55-5.45,3.15-8.25,4.66-4,2.17-8.17,4.25-12.18,6.26-17.53,8.81-34.09,17.12-44.39,33.85-1.21,2-2.51,3.86-3.77,5.7C27.85,580,23.73,586,25.15,593.93c.56,3.14,1.65,4.68,2.48,5.07s2.26,0,3.94-.91a120.91,120.91,0,0,0,17.79-12.63c3.67-3,7.3-6.37,10.81-9.6,5.86-5.37,11.91-10.93,18.65-15.61,12.73-8.82,28.68-13.19,48.76-13.36h0c5.48,0,9.2,7.37,9.23,7.45l1.47,3.29-2.42,2.73c-1.61,1.75-3.16,3.6-4.8,5.56-4.6,5.51-9.36,11.2-15.74,14.92-12.75,7.41-18.58,16.58-18.92,29.72-.1,3.76-.9,6.63-2.44,8.8-3.73,5.23-3.55,11.28-3.34,18.29a68.85,68.85,0,0,1-.35,12,7.41,7.41,0,0,0-.08,1.58,10.71,10.71,0,0,0,3.66-.77c8.34-2.91,12.71-9.88,17.76-18l1.46-2.33c8.39-13.4,17.06-27.26,29.68-39.16,26.24-24.74,56.69-28.3,83-28.51.83,0,1.63,0,2.43-.07q0-6.6,0-13.2C228.28,538.43,234.76,533.88,244.87,537.87Z"/><path class="cls-2" d="M591.24,539.67c-20.94,8.25-42.07,16-63,24.18-28.58,11.16-57,22.76-85.68,33.68-6.79,2.59-9.52,6.1-9.48,13.4.25,44.24.12,88.49.14,132.73,0,2.1-.28,4.41.46,6.26,1.39,3.48,3.2,7.39,8.17,5.49,15.12-5.79,30.18-11.74,45.26-17.66,28.14-11,56.4-21.79,84.35-33.29,12.33-5.07,26-7.47,36.26-17.05V544.48C603.37,538.89,598.32,536.88,591.24,539.67Z"/><path class="cls-2" d="M386.5,470.37c-.29.26-.59.51-.88.75s-.48.39-.56.48c-3.79,4.14-7.62,8.39-11.32,12.5-9.33,10.36-19,21.07-29,31.14A42,42,0,0,1,324.16,526,49.45,49.45,0,0,0,301,536.88c31.21,12.33,62.41,24.66,93.52,37.23,15.73,6.35,30.87,6.42,46.55,0,28.47-11.59,57.12-22.72,85.69-34.06,17-6.75,34.15-13.27,51-20.53,3-1.29,6.4-5.65,6.44-8.63s-3.8-6.1-6.19-8.95c-.72-.86-2.26-1-3.44-1.51l-150.25-61h-3.81c-7.92,7.45-16.09,14.79-24,21.9Q391.48,465.89,386.5,470.37Z"/><path d="M263.27,549.4c1.76-.76,3.42-1.48,5-2.27l-23.41-9.26c-10.11-4-16.59.56-16.62,11.4q0,6.6,0,13.2c9.69-.4,17.38-2.78,24-7.41A60.94,60.94,0,0,1,263.27,549.4Z"/><path class="cls-2" d="M273.79,556.69c-2.06,1-4.15,1.94-6.17,2.81a51.82,51.82,0,0,0-9.06,4.59c-8.44,5.87-18.38,8.95-30.33,9.39q0,19.18,0,38.35c0,21.27-.06,42.55,0,63.82,0,9.79,6.92,14.44,15.6,10.3Q318,650.6,392,615c4.1-2,7-4.76,6.9-9.61-.15-5.1-3.31-7.86-7.8-9.63q-54.22-21.46-108.45-42.95c-1.29.59-2.59,1.13-3.85,1.65C277,555.22,275.3,555.92,273.79,556.69Z"/><path d="M336.92,507.46c9.86-9.86,19.41-20.47,28.64-30.72,3.72-4.13,7.57-8.4,11.39-12.57a15,15,0,0,1,1.69-1.56c.16-.13.33-.26.48-.4q5-4.5,10-9c3.7-3.32,7.45-6.7,11.2-10.1-1.79.61-3.58,1.25-5.33,2q-49.38,20.25-98.65,40.76-18.09,7.48-36.18,15c-4.53,1.89-9.06,3.8-9.06,10s4.29,8.17,9,9.87c.4.14.77.35,1.16.51l28.38,11.23a59.64,59.64,0,0,1,32.39-17.17A30.71,30.71,0,0,0,336.92,507.46Z"/><path class="cls-2" d="M658.5,119.73a25.46,25.46,0,0,1-4.88-3.44c-1.49-1.31-5.2-2.2-8.27-2-20.06,1.51-38.13,11.16-55.23,29.51-2.74,2.94-5.45,6.1-8.07,9.15-8.72,10.16-17.74,20.67-30.87,27.11-3.57,1.76-7.43,1.55-10.84,1.36-1.24-.07-2.42-.13-3.44-.09l-6.58.27.91-6.52c.16-1.19.19-2.68.23-4.27.1-4.61.22-9.84,3.9-13.13,6.37-5.68,13.9-9.75,21.19-13.7.89-.48,1.78-1,2.66-1.45a71.54,71.54,0,0,1,8.59-3.78c3.74-1.45,7.28-2.83,9.88-4.88,3-2.35,3.86-4.27,3.72-5.2-.19-1.15-2.09-2.94-5.93-4.36-1.61-.59-3.11-1.29-4.55-2l-1.86-.85L563.41,119l3.16-5.31c.19-.32.32-.56.42-.75a6.28,6.28,0,0,1,3.57-3.36l.53-.19a31.1,31.1,0,0,1,4.82-1.38c13.58-2.44,21.56-9.5,25.1-22.21,1-3.42.9-6.14-.15-7.64s-3.74-2.16-5.73-2.31a176.63,176.63,0,0,0-23.35-.33c-10.43.58-19.38-2.53-29-10.09-6.43-5-12.43-8-17.37-8.64-14.79-1.83-34-2.83-51.09,5.75l-1,.5c-10.61,5.31-20.63,10.32-23.61,21.2-5.59,20.36-17.3,31-35.78,32.62-2.15.19-3.06.87-3.25,1.25a2.87,2.87,0,0,0,.54,2.33c2.59,4.44,7.17,9,12.89,12.83,8.86,5.94,11.79,10.44,5.74,21.42-3.66,6.66-8.54,12-13.26,17.17-2.31,2.53-4.5,4.92-6.54,7.44-10.12,12.54-17.55,28.31-23.39,49.63-2.57,9.37-5.67,19.24-10.92,27.89-2.88,4.75-5.36,9.65-8,14.83-5.43,10.72-11,21.79-20.28,31.17-6.7,6.81-12.15,15.6-16.17,26.13-5,13.13-15.44,26.38-27.19,34.59-15.29,10.68-32.08,13.54-47.3,8.06a15.23,15.23,0,0,0-2.38.31,25.55,25.55,0,0,1-3.76.47c-1.85.07-3.72.22-5.7.37-5,.4-10.2.81-15.43-.11-15.3-2.71-31.57-5.86-47.38-11.91-19-7.26-34.89-15.69-48.63-25.76-11.65-8.53-22.1-18.76-32.21-28.66l-3.14-3.07a62.16,62.16,0,0,1-12-17.12c-2.47-5.08-4.46-10.36-6.38-15.46-1.29-3.44-2.63-7-4.08-10.37a10.78,10.78,0,0,0-.75-1.41,4.44,4.44,0,0,0-.59,1.1c-2.69,8.32-5.15,17.37-8,29.34a9.85,9.85,0,0,0,.54,5.06l.66,1.81a164.46,164.46,0,0,0,8.16,19.75c9.74,18.68,22.17,35.79,33.05,50.07l1.71,2.26c9.64,12.7,18,23.68,33.38,26.53a10.41,10.41,0,0,1,4.86,2.6c.23.2.54.46.66.54l8.3,4.12c11.88,5.91,24.16,12,36.37,17.68a14.26,14.26,0,0,0,3.5-.1c1.14-.11,2.33-.22,3.57-.23.92,0,1.89,0,2.91-.1a30.7,30.7,0,0,1,9.16.5c3.79.95,5.55,5.2,6.27,7.64.9,3.1.51,5.56-1.15,7.33-4.14,4.38-7,10.06-9.93,16.06-4.92,9.94-10.49,21.18-23.29,27a4.38,4.38,0,0,0-.61,1.32c-2.5,10-10.86,13.07-16.4,15.1a28.77,28.77,0,0,0-3.74,1.86,42.68,42.68,0,0,1-4.59,2.3c-10.52,4.27-19.29,7.71-27.6,10.83-2.5.94-5,1.71-7.45,2.47a75.85,75.85,0,0,0-10.08,3.61c-4.54,2.13-8.87,4.64-13.47,7.28-2.68,1.55-5.45,3.15-8.25,4.66-4,2.17-8.17,4.25-12.18,6.26-17.53,8.81-34.09,17.12-44.39,33.85-1.21,2-2.51,3.86-3.77,5.7C27.85,580,23.73,586,25.15,593.93c.56,3.14,1.65,4.68,2.48,5.07s2.26,0,3.94-.91a120.91,120.91,0,0,0,17.79-12.63c3.67-3,7.3-6.37,10.81-9.6,5.86-5.37,11.91-10.93,18.65-15.61,12.73-8.82,28.68-13.19,48.76-13.36h0c5.48,0,9.2,7.37,9.23,7.45l1.47,3.29-2.42,2.73c-1.61,1.75-3.16,3.6-4.8,5.56-4.6,5.51-9.36,11.2-15.74,14.92-12.75,7.41-18.58,16.58-18.92,29.72-.1,3.76-.9,6.63-2.44,8.8-3.73,5.23-3.55,11.28-3.34,18.29a68.85,68.85,0,0,1-.35,12,7.41,7.41,0,0,0-.08,1.58,10.71,10.71,0,0,0,3.66-.77c8.34-2.91,12.71-9.88,17.76-18l1.46-2.33c8.39-13.4,17.06-27.26,29.68-39.16,26.24-24.74,56.69-28.3,83-28.51.83,0,1.63,0,2.43-.07,9.69-.4,17.38-2.78,24-7.41a60.94,60.94,0,0,1,11-5.66c1.76-.76,3.42-1.48,5-2.27l.53-.25c1.89-1,3.85-1.77,5.76-2.56,3.78-1.57,7.7-3.2,9.41-5.41a74.4,74.4,0,0,1,5.68-6.51,59.64,59.64,0,0,1,32.39-17.17,30.71,30.71,0,0,0,14.87-7.77c9.86-9.86,19.41-20.47,28.64-30.72,3.72-4.13,7.57-8.4,11.39-12.57a15,15,0,0,1,1.69-1.56c.16-.13.33-.26.48-.4q5-4.5,10-9c3.7-3.32,7.45-6.7,11.2-10.1,4.73-4.28,9.45-8.61,14.06-13,3.88-3.68,10.39-9.83,20.16-3.46,1.92,1.25,3.61,1.72,5,1.37,1.82-.43,3.72-2.23,5.36-5.06a94.64,94.64,0,0,0,5.16-11c1-2.32,2-4.72,3.09-7.08q.75-1.62,1.47-3.27a53.43,53.43,0,0,1,6.27-11.5c4.15-5.37,8.54-10.62,12.79-15.69,5.6-6.69,11.38-13.6,16.52-20.68,11.35-15.64,23.85-34.56,30.46-56.25,1.41-4.63,7.94-11.27,13.69-10.66,7.48.82,13.41-2.38,20.28-6.07,1.75-.94,3.56-1.91,5.43-2.84,19.37-9.56,33.7-25.14,47.88-41.61a110.21,110.21,0,0,0,6.76-9.07c1.3-1.86,2.64-3.8,4-5.69s3.05-3.89,4.57-5.72c.66-.81,1.32-1.61,2-2.42l2.44-3a76.63,76.63,0,0,1,30.74-90.67Z"/><path class="cls-2" d="M699.89,250a65.72,65.72,0,1,0-65.72-65.72A65.79,65.79,0,0,0,699.89,250Z"/></g></svg>