<svg xmlns="http://www.w3.org/2000/svg" viewBox="0 0 792 792"><defs><style>.cls-1{stroke:#fff;stroke-miterlimit:10;stroke-width:11px;}</style></defs><title>Air Bud logo</title><g id="Layer_1" data-name="Layer 1"><path d="M607.68,687.41c-10.24,9.58-23.93,12-36.26,17.05-27.95,11.5-56.21,22.25-84.35,33.29-15.08,5.92-30.14,11.87-45.26,17.66-5,1.9-6.78-2-8.17-5.49-.74-1.85-.46-4.16-.46-6.26,0-44.24.11-88.49-.14-132.73,0-7.3,2.69-10.81,9.48-13.4,28.68-10.92,57.1-22.52,85.68-33.68,21-8.19,42.1-15.93,63-24.18,7.08-2.79,12.13-.78,16.44,4.81Z"/><path d="M424.28,439.5l150.25,61c1.18.48,2.72.65,3.44,1.51,2.39,2.85,6.23,6,6.19,8.95s-3.45,7.34-6.44,8.63c-16.81,7.26-33.93,13.78-51,20.53-28.57,11.34-57.22,22.47-85.69,34.06-15.68,6.38-30.82,6.31-46.55,0-44.31-17.91-88.82-35.33-133.24-52.94-.39-.16-.76-.37-1.16-.51-4.74-1.7-9-3.75-9-9.87s4.53-8.06,9.06-10q18.08-7.54,36.18-15,49.32-20.4,98.65-40.76c5.41-2.22,11.09-3.74,16.65-5.59Z"/><path d="M228.24,611.83c0-20.85,0-41.7,0-62.56,0-10.84,6.51-15.39,16.62-11.4q73.14,28.86,146.22,57.9c4.49,1.77,7.65,4.53,7.8,9.63.14,4.85-2.8,7.64-6.9,9.61Q317.94,650.48,243.87,686c-8.68,4.14-15.56-.51-15.6-10.3C228.18,654.37,228.24,633.1,228.24,611.83Z"/><path class="cls-1" d="M571.3,116.49c2.08.93,4,1.94,6.07,2.69,10.92,4,12.89,11.79,3.72,19-5.44,4.29-13,5.77-19.24,9.18-7.92,4.32-16.2,8.51-22.83,14.42-2.76,2.47-1.68,9.24-2.35,14.06,4.07-.17,8.75.92,12.09-.71,16-7.84,25.6-22.48,37.34-35.08,15.73-16.89,34.78-29.44,58.84-31.24,4.08-.31,9.42.77,12.31,3.33,6,5.31,11.21,5.1,18.53,2.65,41.84-14,85.92,7.14,97.72,47.93,8.66,29.95,1.81,62.16-26.61,83.95-20.67,15.85-58.55,20-82,5.23-11.15-7-19.46-18.54-29-28.09-2.2-2.2-4.16-4.64-6.23-7-2.14,2.65-4.37,5.24-6.41,8-3.72,5-7,10.35-11.05,15.06-14.4,16.73-29.11,32.83-49.61,43-9.37,4.63-17.41,10.68-28.75,9.44-2.42-.26-6.94,3.88-7.83,6.8-6.54,21.46-18.32,40.05-31.27,57.88-9.16,12.63-19.85,24.14-29.41,36.5-3.11,4-4.92,9.07-7.11,13.74-2.89,6.16-5.08,12.69-8.47,18.54-4.1,7.08-10.43,10.59-18.16,5.55-6-3.89-9.22-1.09-13.38,2.85-11.57,10.93-23.53,21.46-35.34,32.14-.59.54-1.27,1-1.81,1.59-13.32,14.56-26.25,29.52-40.18,43.47a36.14,36.14,0,0,1-17.72,9.27c-14.64,2.87-25.61,9.87-34.78,21.67-3.67,4.72-11.17,6.53-17,9.5-5.26,2.67-11.09,4.46-15.88,7.78-9,6.28-19,8.38-29.56,8.47-29.43.24-56.32,5.36-79.28,27-12.68,12-21.14,25.86-30,40-5.39,8.61-10.54,17-20.87,20.65-7.38,2.58-11.9.59-10.84-6.78,1.56-10.89-2.55-22.62,4.65-32.74,1.07-1.5,1.37-3.8,1.42-5.75.41-15.8,7.91-26.34,21.65-34.34,7.63-4.44,13.06-12.69,19.25-19.44.1-.1-2.76-4.26-4.22-4.25-16.27.14-32.21,3.05-45.67,12.38C71.52,572,62.71,581.56,52.86,589.7a128.88,128.88,0,0,1-18.6,13.19c-7.45,4.19-13,.69-14.53-8-2.26-12.64,6.19-21,12-30.43C45.35,542.3,69,533.92,90.34,522.41c7.36-4,14.44-8.53,22-12.08,5.7-2.68,12-4,17.94-6.25,9.2-3.45,18.35-7.08,27.46-10.78,2.93-1.19,5.56-3.14,8.51-4.22,5.81-2.13,11.23-4.36,12.95-11.27.45-1.81,1.76-4.15,3.3-4.83,18.41-8.08,19.74-29.14,31.87-42,.65-.69-1.15-5.53-2.45-5.86-3.38-.85-7.12-.24-10.72-.24-3.16,0-6.81,1-9.41-.18-15.1-7-30-14.51-44.87-21.91-1.43-.71-2.56-2.35-4-2.61-18.5-3.42-27.7-16.73-38.47-30.87C92,353,80.32,336.56,70.89,318.47c-3.69-7.07-6.36-14.7-9.1-22.22a15.15,15.15,0,0,1-.73-8.22c2.37-10,5-20,8.11-29.75,1-3.1,4-5.55,6.14-8.29,1.86,2.69,4.22,5.17,5.49,8.12,3.63,8.46,6.33,17.34,10.35,25.6A56.5,56.5,0,0,0,102,299.29c11.15,10.88,22.25,22.07,34.76,31.24,14.4,10.55,30.34,18.55,47.35,25.06,15.21,5.82,30.69,8.85,46.37,11.62,6.44,1.14,13.31-.09,20-.33,2.72-.1,5.77-1.34,8.11-.49,15.61,5.65,30.69.79,42.37-7.37a73.14,73.14,0,0,0,25.2-32c4.21-11,9.92-20.42,17.39-28,12.86-13.06,18.4-30,27.49-45,4.84-8,7.82-17.37,10.31-26.49,5.13-18.72,12.29-36.59,24.42-51.63C412.16,167.92,420,161.18,425,152c4.23-7.7,3.38-9.26-4-14.2-5.66-3.79-11.2-8.84-14.58-14.63-3.25-5.58-.7-11.16,7-11.83,17.78-1.52,26.46-12.25,30.94-28.6,3.75-13.64,16.13-19.48,27.46-25.16,17.1-8.56,35.86-8.56,54.23-6.29,7,.87,14.3,5.24,20.09,9.77,7.69,6,15.45,9.48,25.31,8.93a180.87,180.87,0,0,1,24.08.33c10,.78,13.44,7.27,10.75,16.91-4.25,15.24-14.28,23.43-29.43,26.15a31.65,31.65,0,0,0-4.52,1.35C572.09,114.85,572,115.37,571.3,116.49Z"/><circle class="cls-1" cx="699.89" cy="184.27" r="71.21"/></g></svg>